<svg xmlns="http://www.w3.org/2000/svg" xmlns:xlink="http://www.w3.org/1999/xlink" version="1.1"
	width="1280" height="1024" viewBox="0 0 1280 1024" xml:space="preserve">
<desc>Created with Fabric.js 5.3.0</desc>
<defs>
</defs>
<g transform="matrix(1 0 0 1 640 512)" id="background-logo"  >
<rect style="stroke: none; stroke-width: 0; stroke-dasharray: none; stroke-linecap: butt; stroke-dashoffset: 0; stroke-linejoin: miter; stroke-miterlimit: 4; fill: rgb(255,255,255); fill-opacity: 0; fill-rule: nonzero; opacity: 1;"  paint-order="stroke"  x="-640" y="-512" rx="0" ry="0" width="1280" height="1024" />
</g>
<g transform="matrix(1.9211538461538462 0 0 1.9211538461538462 640.3803884615387 636.9940826323656)" id="text-logo"  >
<g style=""  paint-order="stroke"   >
		<g transform="matrix(1 0 0 1 0 0)" id="text-logo-path-0"  >
<linearGradient id="SVGID_148798" gradientUnits="userSpaceOnUse" gradientTransform="matrix(1 0 0 1 2.969999999999999 -46.86)"  x1="-2.9700000000000273" y1="-11.163240000000087" x2="-2.9700000000000273" y2="63.83675999999991">
<stop offset="0%" style="stop-color:rgb(23,234,217);stop-opacity: 1"/>
<stop offset="100%" style="stop-color:rgb(96,120,234);stop-opacity: 1"/>
</linearGradient>
<filter id="SVGID_148792" y="-32.40719611756276%" height="164.81439223512552%" x="-21.255354851395865%" width="142.51070970279173%" >
	<feGaussianBlur in="SourceAlpha" stdDeviation="0"></feGaussianBlur>
	<feOffset dx="5.895899595065825" dy="5.895899595065825" result="oBlur" ></feOffset>
	<feFlood flood-color="rgb(200,221,228)" flood-opacity="1"/>
	<feComposite in2="oBlur" operator="in" />
	<feMerge>
		<feMergeNode></feMergeNode>
		<feMergeNode in="SourceGraphic"></feMergeNode>
	</feMerge>
</filter>
<path style="stroke: rgb(255,255,255); stroke-width: 13.68052893054234; stroke-dasharray: none; stroke-linecap: butt; stroke-dashoffset: 0; stroke-linejoin: miter; stroke-miterlimit: 4; fill: url(#SVGID_148798); fill-rule: nonzero; opacity: 1;filter: url(#SVGID_148792);"  paint-order="stroke"  transform=" translate(-237.79999999999998, 23.1)" d="M 6.27 -39.6 L 13.86 -39.6 L 13.86 -2.64 C 13.86 -0.79 15.31 0.66 17.16 0.66 C 19.01 0.66 20.46 -0.79 20.46 -2.64 L 20.46 -39.6 L 28.05 -39.6 C 29.9 -39.6 31.35 -41.05 31.35 -42.9 C 31.35 -44.75 29.9 -46.2 28.05 -46.2 L 6.27 -46.2 C 4.42 -46.2 2.97 -44.75 2.97 -42.9 C 2.97 -41.05 4.42 -39.6 6.27 -39.6 Z M 67.72 -12.94 L 67.72 -33.26 C 67.72 -40.79 61.64 -46.86 54.05 -46.86 L 52.27 -46.86 C 44.42 -46.86 38.61 -41.05 38.61 -33.2 L 38.61 -13 C 38.61 -5.15 44.42 0.66 52.27 0.66 L 54.05 0.66 C 61.64 0.66 67.72 -5.41 67.72 -12.94 Z M 61.12 -33.26 L 61.12 -12.94 C 61.12 -9.11 57.95 -5.94 54.05 -5.94 L 52.27 -5.94 C 48.11 -5.94 45.21 -8.84 45.21 -13 L 45.21 -33.2 C 45.21 -37.36 48.11 -40.26 52.27 -40.26 L 54.05 -40.26 C 57.95 -40.26 61.12 -37.09 61.12 -33.26 Z M 106.06 -13.6 L 106.06 -33.4 C 106.06 -40.52 100.39 -46.2 93.26 -46.2 L 80.92 -46.2 C 78.67 -46.2 76.96 -44.48 76.96 -42.24 L 76.96 -3.96 C 76.96 -1.65 78.67 0 80.92 0 L 92.4 0 C 99.99 0 106.06 -6.07 106.06 -13.6 Z M 99.46 -33.4 L 99.46 -13.6 C 99.46 -9.77 96.29 -6.6 92.4 -6.6 L 83.56 -6.6 L 83.56 -39.6 L 93.26 -39.6 C 96.69 -39.6 99.46 -36.83 99.46 -33.4 Z M 119.13 -1.65 L 121.7 -9.9 L 135.96 -9.9 L 138.53 -1.65 C 138.93 -0.4 140.25 0.66 141.7 0.66 C 143.55 0.66 145 -0.79 145 -2.64 C 145 -2.97 144.94 -3.37 144.87 -3.63 L 132.07 -44.55 C 131.67 -45.8 130.35 -46.86 128.9 -46.86 L 128.83 -46.86 L 128.77 -46.86 C 127.31 -46.86 125.99 -45.8 125.6 -44.55 L 112.79 -3.63 C 112.73 -3.37 112.66 -2.97 112.66 -2.64 C 112.66 -0.79 114.11 0.66 115.96 0.66 C 117.41 0.66 118.73 -0.4 119.13 -1.65 Z M 123.75 -16.5 L 128.83 -32.67 L 133.91 -16.5 Z M 166.39 -2.64 L 166.39 -20.92 L 178.86 -41.84 C 179.12 -42.31 179.32 -42.97 179.32 -43.56 C 179.32 -45.41 177.87 -46.86 176.02 -46.86 C 174.83 -46.86 173.78 -46.27 173.18 -45.28 L 163.09 -28.31 L 153.12 -45.21 C 152.53 -46.2 151.47 -46.86 150.28 -46.86 C 148.43 -46.86 146.98 -45.41 146.98 -43.56 C 146.98 -42.97 147.18 -42.37 147.44 -41.91 L 159.79 -20.99 L 159.79 -2.64 C 159.79 -0.79 161.24 0.66 163.09 0.66 C 164.93 0.66 166.39 -0.79 166.39 -2.64 Z M 211.66 -13 C 211.66 -5.15 217.47 0.66 225.32 0.66 L 227.11 0.66 C 234.7 0.66 240.77 -5.41 240.77 -12.94 C 240.77 -19.73 234.83 -22.84 227.57 -26.2 C 222.09 -28.84 218.26 -30.95 218.26 -34.52 C 218.26 -37.36 221.17 -40.26 225.32 -40.26 L 227.11 -40.26 C 231 -40.26 234.17 -37.09 234.17 -33.26 C 234.17 -31.42 235.62 -29.96 237.47 -29.96 C 239.32 -29.96 240.77 -31.42 240.77 -33.26 C 240.77 -40.79 234.7 -46.86 227.11 -46.86 L 225.32 -46.86 C 217.47 -46.86 211.66 -41.05 211.66 -34.52 C 211.66 -26.6 219.05 -23.03 224.8 -20.26 C 230.34 -17.69 234.17 -15.77 234.17 -12.94 C 234.17 -9.11 231 -5.94 227.11 -5.94 L 225.32 -5.94 C 221.17 -5.94 218.26 -8.84 218.26 -13 C 218.26 -14.85 216.81 -16.3 214.96 -16.3 C 213.11 -16.3 211.66 -14.85 211.66 -13 Z M 275.09 -6.6 L 256.61 -6.6 L 256.61 -19.8 L 268.49 -19.8 C 270.34 -19.8 271.79 -21.25 271.79 -23.1 C 271.79 -24.95 270.34 -26.4 268.49 -26.4 L 256.61 -26.4 L 256.61 -39.6 L 275.09 -39.6 C 276.94 -39.6 278.39 -41.05 278.39 -42.9 C 278.39 -44.75 276.94 -46.2 275.09 -46.2 L 253.97 -46.2 C 251.72 -46.2 250.01 -44.48 250.01 -42.24 L 250.01 -3.96 C 250.01 -1.65 251.72 0 253.97 0 L 275.09 0 C 276.94 0 278.39 -1.45 278.39 -3.3 C 278.39 -5.15 276.94 -6.6 275.09 -6.6 Z M 294.1 -1.65 L 296.67 -9.9 L 310.93 -9.9 L 313.5 -1.65 C 313.9 -0.4 315.22 0.66 316.67 0.66 C 318.52 0.66 319.97 -0.79 319.97 -2.64 C 319.97 -2.97 319.9 -3.37 319.84 -3.63 L 307.03 -44.55 C 306.64 -45.8 305.32 -46.86 303.86 -46.86 L 303.8 -46.86 L 303.73 -46.86 C 302.28 -46.86 300.96 -45.8 300.56 -44.55 L 287.76 -3.63 C 287.69 -3.37 287.63 -2.97 287.63 -2.64 C 287.63 -0.79 289.08 0.66 290.93 0.66 C 292.38 0.66 293.7 -0.4 294.1 -1.65 Z M 298.72 -16.5 L 303.8 -32.67 L 308.88 -16.5 Z M 335.81 -2.64 L 335.81 -19.8 L 347.69 -19.8 C 349.54 -19.8 350.99 -21.25 350.99 -23.1 C 350.99 -24.95 349.54 -26.4 347.69 -26.4 L 335.81 -26.4 L 335.81 -39.6 L 354.29 -39.6 C 356.14 -39.6 357.59 -41.05 357.59 -42.9 C 357.59 -44.75 356.14 -46.2 354.29 -46.2 L 333.17 -46.2 C 330.92 -46.2 329.21 -44.48 329.21 -42.24 L 329.21 -2.64 C 329.21 -0.79 330.66 0.66 332.51 0.66 C 334.36 0.66 335.81 -0.79 335.81 -2.64 Z M 395.93 -12.94 L 395.93 -33.26 C 395.93 -40.79 389.86 -46.86 382.27 -46.86 L 380.49 -46.86 C 372.64 -46.86 366.83 -41.05 366.83 -33.2 L 366.83 -13 C 366.83 -5.15 372.64 0.66 380.49 0.66 L 382.27 0.66 C 389.86 0.66 395.93 -5.41 395.93 -12.94 Z M 389.33 -33.26 L 389.33 -12.94 C 389.33 -9.11 386.17 -5.94 382.27 -5.94 L 380.49 -5.94 C 376.33 -5.94 373.43 -8.84 373.43 -13 L 373.43 -33.2 C 373.43 -37.36 376.33 -40.26 380.49 -40.26 L 382.27 -40.26 C 386.17 -40.26 389.33 -37.09 389.33 -33.26 Z M 434.28 -12.94 L 434.28 -33.26 C 434.28 -40.79 428.21 -46.86 420.62 -46.86 L 418.84 -46.86 C 410.98 -46.86 405.17 -41.05 405.17 -33.2 L 405.17 -13 C 405.17 -5.15 410.98 0.66 418.84 0.66 L 420.62 0.66 C 428.21 0.66 434.28 -5.41 434.28 -12.94 Z M 427.68 -33.26 L 427.68 -12.94 C 427.68 -9.11 424.51 -5.94 420.62 -5.94 L 418.84 -5.94 C 414.68 -5.94 411.77 -8.84 411.77 -13 L 411.77 -33.2 C 411.77 -37.36 414.68 -40.26 418.84 -40.26 L 420.62 -40.26 C 424.51 -40.26 427.68 -37.09 427.68 -33.26 Z M 472.63 -13.6 L 472.63 -33.4 C 472.63 -40.52 466.95 -46.2 459.82 -46.2 L 447.48 -46.2 C 445.24 -46.2 443.52 -44.48 443.52 -42.24 L 443.52 -3.96 C 443.52 -1.65 445.24 0 447.48 0 L 458.96 0 C 466.55 0 472.63 -6.07 472.63 -13.6 Z M 466.03 -33.4 L 466.03 -13.6 C 466.03 -9.77 462.86 -6.6 458.96 -6.6 L 450.12 -6.6 L 450.12 -39.6 L 459.82 -39.6 C 463.25 -39.6 466.03 -36.83 466.03 -33.4 Z" stroke-linecap="round" />
</g>
</g>
</g>
<g transform="matrix(1.9211538461538462 0 0 1.9211538461538462 640.2026817307692 363.14144398396627)" id="tagline-0749a706-f639-4113-ba01-9088709a51a3-logo"  >
<g style=""  paint-order="stroke"   >
		<g transform="matrix(1 0 0 1 0 0)" id="tagline-0749a706-f639-4113-ba01-9088709a51a3-logo-path-0"  >
<linearGradient id="SVGID_148799" gradientUnits="userSpaceOnUse" gradientTransform="matrix(1 0 0 1 9.489999999999995 -149.81)"  x1="-9.495000000000033" y1="-35.68854000000002" x2="-9.495000000000033" y2="202.31145999999998">
<stop offset="0%" style="stop-color:rgb(23,234,217);stop-opacity: 1"/>
<stop offset="100%" style="stop-color:rgb(96,120,234);stop-opacity: 1"/>
</linearGradient>
<filter id="SVGID_148795" y="-25.229608727582193%" height="150.45921745516438%" x="-23.91795126686205%" width="147.8359025337241%" >
	<feGaussianBlur in="SourceAlpha" stdDeviation="0"></feGaussianBlur>
	<feOffset dx="7.944821578942867" dy="7.944821578942867" result="oBlur" ></feOffset>
	<feFlood flood-color="rgb(200,221,228)" flood-opacity="1"/>
	<feComposite in2="oBlur" operator="in" />
	<feMerge>
		<feMergeNode></feMergeNode>
		<feMergeNode in="SourceGraphic"></feMergeNode>
	</feMerge>
</filter>
<path style="stroke: rgb(255,255,255); stroke-width: 18.273089631568617; stroke-dasharray: none; stroke-linecap: butt; stroke-dashoffset: 0; stroke-linejoin: miter; stroke-miterlimit: 4; fill: url(#SVGID_148799); fill-rule: nonzero; opacity: 1;filter: url(#SVGID_148795);"  paint-order="stroke"  transform=" translate(-110.88, 73.85)" d="M 20.04 -126.6 L 44.31 -126.6 L 44.31 -8.44 C 44.31 -2.53 48.95 2.11 54.86 2.11 C 60.77 2.11 65.41 -2.53 65.41 -8.44 L 65.41 -126.6 L 89.67 -126.6 C 95.58 -126.6 100.22 -131.24 100.22 -137.15 C 100.22 -143.06 95.58 -147.7 89.67 -147.7 L 20.04 -147.7 C 14.14 -147.7 9.49 -143.06 9.49 -137.15 C 9.49 -131.24 14.14 -126.6 20.04 -126.6 Z M 119.22 -41.57 C 119.22 -16.46 137.78 2.11 162.89 2.11 L 168.59 2.11 C 192.85 2.11 212.27 -17.3 212.27 -41.36 C 212.27 -63.09 193.28 -73.01 170.07 -83.77 C 152.55 -92.21 140.31 -98.96 140.31 -110.35 C 140.31 -119.43 149.6 -128.71 162.89 -128.71 L 168.59 -128.71 C 181.04 -128.71 191.17 -118.58 191.17 -106.34 C 191.17 -100.44 195.81 -95.79 201.72 -95.79 C 207.62 -95.79 212.27 -100.44 212.27 -106.34 C 212.27 -130.4 192.85 -149.81 168.59 -149.81 L 162.89 -149.81 C 137.78 -149.81 119.22 -131.24 119.22 -110.35 C 119.22 -85.03 142.85 -73.64 161.2 -64.78 C 178.93 -56.55 191.17 -50.43 191.17 -41.36 C 191.17 -29.12 181.04 -18.99 168.59 -18.99 L 162.89 -18.99 C 149.6 -18.99 140.31 -28.27 140.31 -41.57 C 140.31 -47.48 135.67 -52.12 129.76 -52.12 C 123.86 -52.12 119.22 -47.48 119.22 -41.57 Z" stroke-linecap="round" />
</g>
</g>
</g>
<g transform="matrix(1.9211538461538462 0 0 1.9211538461538462 631.483525 756.7001419589948)" id="tagline-69f2b216-ab57-4c59-942c-c5650250aa3d-logo"  >
<g style=""  paint-order="stroke"   >
		<g transform="matrix(1 0 0 1 0 0)" id="tagline-69f2b216-ab57-4c59-942c-c5650250aa3d-logo-path-0"  >
<path style="stroke: none; stroke-width: 0; stroke-dasharray: none; stroke-linecap: butt; stroke-dashoffset: 0; stroke-linejoin: miter; stroke-miterlimit: 4; fill: rgb(76,152,229); fill-rule: nonzero; opacity: 1;"  paint-order="stroke"  transform=" translate(-249.95499999999998, 11.575000000000001)" d="M 27.62 -14.57 L 27.62 -12.43 L 23.03 -12.43 L 23.03 2.26 L 20.49 2.26 L 20.49 -25.48 L 23.03 -25.48 L 23.03 -14.57 L 27.62 -14.57 Z M 13.21 -15.81 L 13.21 -23.16 L 15.69 -23.16 L 15.69 -4.4 L 2.76 -4.4 L 2.76 -23.16 L 5.27 -23.16 L 5.27 -15.81 L 13.21 -15.81 Z M 13.21 -6.48 L 13.21 -13.79 L 5.27 -13.79 L 5.27 -6.48 L 13.21 -6.48 Z M 68.36 -14.54 L 68.36 -12.43 L 63.77 -12.43 L 63.77 2.36 L 61.23 2.36 L 61.23 -25.51 L 63.77 -25.51 L 63.77 -14.54 L 68.36 -14.54 Z M 46.1 -20.74 L 46.1 -6.76 Q 47.96 -6.76 49.57 -6.8 Q 51.18 -6.85 52.7 -6.96 Q 54.22 -7.07 55.66 -7.24 Q 57.1 -7.41 58.62 -7.69 L 58.62 -7.69 L 58.9 -5.58 Q 57.32 -5.27 55.8 -5.08 Q 54.28 -4.9 52.7 -4.79 Q 51.12 -4.68 49.41 -4.63 Q 47.71 -4.59 45.76 -4.59 L 45.76 -4.59 L 43.55 -4.59 L 43.55 -22.85 L 56.48 -22.85 L 56.48 -20.74 L 46.1 -20.74 Z M 103.23 -25.51 L 105.77 -25.51 L 105.77 2.36 L 103.23 2.36 L 103.23 -25.51 Z M 92.13 -23.47 L 92.13 -23.47 Q 93.78 -23.47 95.14 -23 Q 96.5 -22.54 97.48 -21.67 Q 98.46 -20.8 99.01 -19.59 Q 99.57 -18.38 99.57 -16.93 L 99.57 -16.93 Q 99.57 -15.47 99.01 -14.26 Q 98.46 -13.05 97.48 -12.2 Q 96.5 -11.35 95.14 -10.87 Q 93.78 -10.38 92.13 -10.38 L 92.13 -10.38 Q 90.52 -10.38 89.16 -10.87 Q 87.79 -11.35 86.8 -12.2 Q 85.81 -13.05 85.25 -14.26 Q 84.69 -15.47 84.69 -16.93 L 84.69 -16.93 Q 84.69 -18.38 85.25 -19.59 Q 85.81 -20.8 86.8 -21.67 Q 87.79 -22.54 89.16 -23 Q 90.52 -23.47 92.13 -23.47 Z M 92.13 -21.3 L 92.13 -21.3 Q 91.05 -21.3 90.13 -20.99 Q 89.22 -20.68 88.57 -20.09 Q 87.92 -19.5 87.54 -18.71 Q 87.17 -17.92 87.17 -16.93 L 87.17 -16.93 Q 87.17 -15.96 87.54 -15.16 Q 87.92 -14.35 88.57 -13.78 Q 89.22 -13.21 90.13 -12.88 Q 91.05 -12.55 92.13 -12.55 L 92.13 -12.55 Q 93.22 -12.55 94.13 -12.88 Q 95.05 -13.21 95.7 -13.78 Q 96.35 -14.35 96.72 -15.16 Q 97.09 -15.96 97.09 -16.93 L 97.09 -16.93 Q 97.09 -17.92 96.72 -18.71 Q 96.35 -19.5 95.7 -20.09 Q 95.05 -20.68 94.13 -20.99 Q 93.22 -21.3 92.13 -21.3 Z M 83.61 -3.75 L 83.3 -5.89 Q 85.19 -5.89 87.4 -5.91 Q 89.62 -5.92 91.96 -6.01 Q 94.3 -6.11 96.72 -6.31 Q 99.14 -6.51 101.4 -6.85 L 101.4 -6.85 L 101.62 -4.96 Q 99.26 -4.53 96.86 -4.28 Q 94.46 -4.03 92.15 -3.92 Q 89.84 -3.81 87.67 -3.78 Q 85.5 -3.75 83.61 -3.75 L 83.61 -3.75 Z M 171.21 -14.23 L 171.21 -12.12 L 166.75 -12.12 L 166.75 2.29 L 164.21 2.29 L 164.21 -25.51 L 166.75 -25.51 L 166.75 -14.23 L 171.21 -14.23 Z M 146.85 -22.54 L 159.56 -22.54 Q 159.56 -19.56 158.84 -16.77 Q 158.13 -13.98 156.61 -11.47 Q 155.09 -8.96 152.71 -6.8 Q 150.32 -4.65 146.94 -2.98 L 146.94 -2.98 L 145.55 -4.96 Q 150.91 -7.66 153.76 -11.56 Q 156.61 -15.47 157.05 -20.43 L 157.05 -20.43 L 146.85 -20.43 L 146.85 -22.54 Z M 206.43 -25.51 L 209 -25.51 L 209 -8.93 L 206.43 -8.93 L 206.43 -12.59 L 199.24 -12.59 L 199.24 -14.66 L 206.43 -14.66 L 206.43 -18.48 L 199.64 -18.48 Q 198.25 -15.19 195.13 -12.87 Q 192.01 -10.54 187.52 -9.27 L 187.52 -9.27 L 186.5 -11.31 Q 189.01 -12 191.05 -13.02 Q 193.1 -14.04 194.56 -15.35 Q 196.01 -16.65 196.88 -18.23 Q 197.75 -19.81 197.94 -21.58 L 197.94 -21.58 L 187.95 -21.58 L 187.95 -23.65 L 200.66 -23.65 Q 200.66 -22.04 200.29 -20.55 L 200.29 -20.55 L 206.43 -20.55 L 206.43 -25.51 Z M 190.4 -5.64 L 190.4 -7.69 L 209 -7.69 L 209 2.23 L 206.43 2.23 L 206.43 -5.64 L 190.4 -5.64 Z M 239.38 -15.41 L 239.38 -15.41 Q 234.79 -15.41 232.21 -16.63 Q 229.62 -17.86 229.62 -20.21 L 229.62 -20.21 Q 229.62 -22.57 232.21 -23.81 Q 234.79 -25.05 239.38 -25.05 L 239.38 -25.05 Q 243.97 -25.05 246.56 -23.81 Q 249.15 -22.57 249.15 -20.21 L 249.15 -20.21 Q 249.15 -17.86 246.56 -16.63 Q 243.97 -15.41 239.38 -15.41 Z M 239.38 -23.13 L 239.38 -23.13 Q 235.94 -23.13 234.08 -22.37 Q 232.22 -21.61 232.22 -20.21 L 232.22 -20.21 Q 232.22 -18.82 234.08 -18.06 Q 235.94 -17.3 239.38 -17.3 L 239.38 -17.3 Q 242.82 -17.3 244.68 -18.06 Q 246.54 -18.82 246.54 -20.21 L 246.54 -20.21 Q 246.54 -21.61 244.68 -22.37 Q 242.82 -23.13 239.38 -23.13 Z M 226.8 -13.52 L 251.97 -13.52 L 251.97 -11.47 L 226.8 -11.47 L 226.8 -13.52 Z M 232.41 -2.82 L 232.41 0 L 249.58 0 L 249.58 1.98 L 229.93 1.98 L 229.93 -4.68 L 246.23 -4.68 L 246.23 -7.16 L 229.83 -7.16 L 229.83 -9.08 L 248.74 -9.08 L 248.74 -2.82 L 232.41 -2.82 Z M 314.93 -14.23 L 314.93 -12.12 L 310.47 -12.12 L 310.47 2.29 L 307.92 2.29 L 307.92 -25.51 L 310.47 -25.51 L 310.47 -14.23 L 314.93 -14.23 Z M 290.56 -22.54 L 303.27 -22.54 Q 303.27 -19.56 302.56 -16.77 Q 301.85 -13.98 300.33 -11.47 Q 298.81 -8.96 296.42 -6.8 Q 294.04 -4.65 290.66 -2.98 L 290.66 -2.98 L 289.26 -4.96 Q 294.62 -7.66 297.48 -11.56 Q 300.33 -15.47 300.76 -20.43 L 300.76 -20.43 L 290.56 -20.43 L 290.56 -22.54 Z M 351.39 -18.48 L 355.51 -18.48 L 355.51 -16.34 L 351.39 -16.34 L 351.39 -8.71 L 348.84 -8.71 L 348.84 -25.48 L 351.39 -25.48 L 351.39 -18.48 Z M 345.93 -12.06 L 344.72 -10.07 Q 342.33 -10.85 340.61 -12.42 Q 338.89 -13.98 337.99 -16.06 L 337.99 -16.06 Q 337.09 -13.67 335.3 -11.9 Q 333.5 -10.14 330.99 -9.24 L 330.99 -9.24 L 329.69 -11.25 Q 331.27 -11.81 332.55 -12.73 Q 333.84 -13.64 334.75 -14.83 Q 335.67 -16.03 336.16 -17.42 Q 336.66 -18.82 336.66 -20.3 L 336.66 -20.3 L 336.66 -21.39 L 330.43 -21.39 L 330.43 -23.44 L 345.34 -23.44 L 345.34 -21.39 L 339.2 -21.39 L 339.2 -20.3 Q 339.2 -18.94 339.68 -17.67 Q 340.16 -16.4 341.03 -15.33 Q 341.9 -14.26 343.15 -13.42 Q 344.41 -12.59 345.93 -12.06 L 345.93 -12.06 Z M 342.55 -8 L 342.55 -8 Q 344.66 -8 346.36 -7.66 Q 348.07 -7.32 349.25 -6.65 Q 350.42 -5.98 351.06 -5.04 Q 351.7 -4.09 351.7 -2.88 L 351.7 -2.88 Q 351.7 -1.67 351.06 -0.71 Q 350.42 0.25 349.25 0.91 Q 348.07 1.58 346.36 1.92 Q 344.66 2.26 342.55 2.26 L 342.55 2.26 Q 338.27 2.26 335.82 0.91 Q 333.37 -0.43 333.37 -2.88 L 333.37 -2.88 Q 333.37 -5.3 335.82 -6.65 Q 338.27 -8 342.55 -8 Z M 342.55 0.25 L 342.55 0.25 Q 345.65 0.25 347.4 -0.57 Q 349.15 -1.4 349.15 -2.88 L 349.15 -2.88 Q 349.15 -4.37 347.4 -5.18 Q 345.65 -5.98 342.55 -5.98 L 342.55 -5.98 Q 339.42 -5.98 337.67 -5.18 Q 335.92 -4.37 335.92 -2.88 L 335.92 -2.88 Q 335.92 -1.4 337.67 -0.57 Q 339.42 0.25 342.55 0.25 Z M 417.91 -14.66 L 417.91 -12.52 L 414.19 -12.52 L 414.19 2.29 L 411.68 2.29 L 411.68 -25.51 L 414.19 -25.51 L 414.19 -14.66 L 417.91 -14.66 Z M 398.16 -15.78 L 398.16 -22.91 L 400.27 -22.91 L 400.27 -4.43 L 392.58 -4.43 L 392.58 -22.91 L 394.75 -22.91 L 394.75 -15.78 L 398.16 -15.78 Z M 407.19 -15.78 L 407.19 -22.91 L 409.32 -22.91 L 409.32 -4.43 L 401.76 -4.43 L 401.76 -22.91 L 403.9 -22.91 L 403.9 -15.78 L 407.19 -15.78 Z M 398.16 -6.51 L 398.16 -13.73 L 394.75 -13.73 L 394.75 -6.51 L 398.16 -6.51 Z M 407.19 -6.51 L 407.19 -13.73 L 403.9 -13.73 L 403.9 -6.51 L 407.19 -6.51 Z M 452.41 -17.02 L 452.41 -21.33 L 435.86 -21.33 L 435.86 -23.37 L 454.89 -23.37 L 454.89 -14.97 L 438.43 -14.97 L 438.43 -10.45 L 455.55 -10.45 L 455.55 -8.37 L 435.92 -8.37 L 435.92 -17.02 L 452.41 -17.02 Z M 432.76 -3.32 L 458.03 -3.32 L 458.03 -1.21 L 432.76 -1.21 L 432.76 -3.32 Z M 494.73 -25.51 L 497.15 -25.51 L 497.15 2.29 L 494.73 2.29 L 494.73 -25.51 Z M 488.93 -14.14 L 488.93 -24.77 L 491.35 -24.77 L 491.35 0.9 L 488.93 0.9 L 488.93 -12.09 L 483.23 -12.09 Q 481.96 -9.67 479.96 -7.55 Q 477.96 -5.42 475.04 -3.69 L 475.04 -3.69 L 473.56 -5.52 Q 478.05 -8.21 480.33 -11.86 Q 482.61 -15.5 482.95 -19.9 L 482.95 -19.9 L 474.73 -19.9 L 474.73 -21.98 L 485.46 -21.98 Q 485.46 -19.93 485.15 -17.96 Q 484.84 -16 484.13 -14.14 L 484.13 -14.14 L 488.93 -14.14 Z" stroke-linecap="round" />
</g>
</g>
</g>
</svg>